<?xml version="1.0" encoding="UTF-8"?>
<svg id="_图层_1" data-name="图层 1" xmlns="http://www.w3.org/2000/svg" viewBox="0 0 1600.5 541.86">
  <defs>
    <style>
      .cls-1 {
        fill: #292a2d;
      }

      .cls-2 {
        fill: none;
        stroke: #078ce1;
        stroke-miterlimit: 10;
        stroke-width: 3px;
      }
    </style>
  </defs>
  <path class="cls-1" d="M1600.25,.47V406.59c-101.83,157.31-417.21,144.06-562.18,117.78-91.18-20.13-341.81-70.85-587.86,0C272.75,575.47,45.47,502.36,.25,442.97V.47H1600.25Z"/>
  <path class="cls-2" d="M.83,43.61s59.15-9.96,71.26,39.53c8.59,35.1-20.35,51.05-28.07,86.44-7.72,35.4,15.71,99-43.77,95.92"/>
  <path class="cls-2" d="M1500.3,.61c-5.37,11.96-9.07,22.12-12.63,34.74-5.58,19.77-12.75,69.83,21.42,81.3,33.28,11.18,90.66-14.54,90.66-14.54"/>
  <path class="cls-2" d="M1539.17,469.61s-40.16-6.32-51.61-39.04c-8.37-23.97-2.84-46.76-12.89-61.96-23.87-36.15-87.39-16.43-99.78,30.75-12.53,47.76,32.54,88.96,95.16,104.22"/>
  <path class="cls-2" d="M352.96,540.16s-7.96-83.7-88.01-98.4c-50.99-9.37-84.53,43.77-142.42,45.01-57.89,1.24-69.35-49.32-106.86-27.66"/>
</svg>