<?xml version="1.0" encoding="UTF-8"?>
<svg id="_图层_1" data-name="图层 1" xmlns="http://www.w3.org/2000/svg" viewBox="0 0 1600.33 559.81">
  <defs>
    <style>
      .cls-1 {
        fill: #292a2d;
      }

      .cls-2 {
        fill: none;
        stroke: #078ce1;
        stroke-miterlimit: 10;
      }
    </style>
  </defs>
  <path class="cls-1" d="M1599.88,144.53v415.03H.25V72.08S222.63-47.12,499.13,22.03C959.03,137.03,974.36-20.16,1270.45,2.53c254.44,19.5,329.43,142,329.43,142Z"/>
  <path class="cls-2" d="M1600.25,524.71s-40.15-6.32-51.59-39.03c-8.38-23.98-2.85-46.76-12.9-61.97-23.86-36.15-87.36-16.43-99.75,30.75-12.53,47.76,32.54,88.96,95.13,104.23"/>
  <path class="cls-2" d="M230.49,559.07s10.73-63.3-44.81-89.82c-35.38-16.89-70.37,15.75-112.88,5.34-42.51-10.41-40.88-49.95-72.55-41.31"/>
</svg>